<?xml version="1.0" encoding="utf-8"?>
<!-- Generator: Adobe Illustrator 19.2.1, SVG Export Plug-In . SVG Version: 6.00 Build 0)  -->
<svg version="1.1" id="Layer_1" xmlns="http://www.w3.org/2000/svg" xmlns:xlink="http://www.w3.org/1999/xlink" x="0px" y="0px"
	 viewBox="0 0 100 100" style="enable-background:new 0 0 100 100;" xml:space="preserve">
<style type="text/css">
	.st0{fill:#FCFCFC;}
	.st1{fill:none;}
</style>
<g>
	<g>
		<path class="st0" d="M91.4,95c-0.9,0-1.9-0.4-2.6-1.1L6.1,11.2c-1.4-1.4-1.4-3.7,0-5.1c1.4-1.4,3.7-1.4,5.1,0l82.7,82.7
			c1.4,1.4,1.4,3.7,0,5.1C93.2,94.6,92.3,95,91.4,95z"/>
	</g>
	<g>
		<path class="st0" d="M8.6,95c-0.9,0-1.9-0.4-2.6-1.1c-1.4-1.4-1.4-3.7,0-5.1L88.8,6.1c1.4-1.4,3.7-1.4,5.1,0
			c1.4,1.4,1.4,3.7,0,5.1L11.2,93.9C10.5,94.6,9.6,95,8.6,95z"/>
	</g>
</g>
<rect class="st1" width="100" height="100"/>
</svg>
