<?xml version="1.0" encoding="UTF-8"?>
<!-- Generator: Adobe Illustrator 15.0.2, SVG Export Plug-In . SVG Version: 6.00 Build 0)  -->
<!DOCTYPE svg PUBLIC "-//W3C//DTD SVG 1.1//EN" "http://www.w3.org/Graphics/SVG/1.1/DTD/svg11.dtd">
<svg xmlns="http://www.w3.org/2000/svg" xmlns:xlink="http://www.w3.org/1999/xlink" version="1.1" id="Layer_1" x="0px" y="0px" width="512px" height="358.4px" viewBox="0 0 512 358.4" enable-background="new 0 0 512 358.4" xml:space="preserve">
<g>
	<path d="M25.6,204.8H486.4c14.125,0,25.6-11.475,25.6-25.6S500.525,153.6,486.4,153.6H25.6C11.475,153.6,0,165.075,0,179.2   S11.475,204.8,25.6,204.8z M25.6,51.2H486.4c14.125,0,25.6-11.476,25.6-25.601C512,11.475,500.525,0,486.4,0H25.6   C11.475,0,0,11.475,0,25.6C0,39.725,11.475,51.2,25.6,51.2z M25.6,358.4H486.4c14.125,0,25.6-11.476,25.6-25.601   s-11.475-25.6-25.6-25.6H25.6C11.475,307.2,0,318.675,0,332.8S11.475,358.4,25.6,358.4z" fill="#000000"/>
</g>
</svg>
